<svg version="1.1" id="our-journey" xmlns="http://www.w3.org/2000/svg" xmlns:xlink="http://www.w3.org/1999/xlink" x="0px" y="0px" viewBox="0 0 1920 1181" enable-background="new 0 0 1920 1181" xml:space="preserve">

	<text class="external-strengths-text" x="834" y="256">EXTERNAL STRENGTHS</text>

	<text class="internal-strengths-text" x="836" y="526">INTERNAL STRENGTHS</text>

	<g class="school-culture">

		<path id="school-culture-heading" data-heading="1" d="M1112,269c0,12,0,24,0,36.9c-2.8,0-5.2,0-7.6,0c-191.6,0-383.3,0-574.9,0c-49.7,0-95.3,13.4-136.5,41.2c-0.8,0.6-1.7,1-2.9,1.8c-7.4-9.7-14.8-19.3-22.1-28.9c0-0.3,0-0.7,0-1c1.6-0.9,3.2-1.6,4.7-2.6C407.8,293,446,277.8,487.9,272c8-1.1,16.1-2,24.1-3C712,269,912,269,1112,269z" />

		<text class="school-culture-heading-text" x="700" y="296">School Culture</text>

		<path id="caring-school-climate" d="M504.5,497.2c-0.3,0-0.7,0-1,0c-35.3-46.5-70.7-93.1-106.1-139.6c-0.7-1-1.9-1.6-2.9-2.4c0-0.3,0-0.7,0-1c1.5-0.7,3-1.2,4.4-2.1c28.2-18.1,58.8-30,92-34.9c7.2-1.1,14.4-2,21.6-3c30.3,0,60.6,0,91,0c0,59,0,118,0,177c-2.2,0.1-4.3,0.4-6.5,0.4c-23.1,0-46.2,0-69.3,0.1C519.6,491.7,511.5,492.4,504.5,497.2z" />

		<text class="caring-school-climate-text" x="450" y="400">Caring School</text>
		<text class="caring-school-climate-text" x="480" y="426">Climate</text>

		<image id="caring-school-climate-icon" x="410" y="324" width="52" height="52" xlink:href="" />

		<rect id="bonding-to-school" x="613.2" y="314.5" width="161" height="178" />

		<text class="bonding-to-school-text" x="655" y="400">Bonding</text>
		<text class="bonding-to-school-text" x="645" y="426">To School</text>

		<image id="bonding-to-school-icon" x="618" y="308" width="52" height="52" xlink:href="" />

		<rect id="high-expectations" x="781.2" y="314.5" width="161" height="178" />

		<text class="high-expectations-text" x="840" y="400">High</text>
		<text class="high-expectations-text" x="805" y="426">Expectations</text>

		<image id="high-expectations-icon" x="786" y="308" width="52" height="52" xlink:href="" />

		<rect id="school-boundaries" x="950.2" y="314.5" width="161" height="178" />

		<text class="school-boundaries-text" x="1000" y="400">School</text>
		<text class="school-boundaries-text" x="980" y="426">Boundaries</text>

		<image id="school-boundaries-icon" x="955" y="308" width="52" height="52" xlink:href="" />

	</g>

	<g class="family-support-and-expectation">

		<path id="family-support-and-expectation-heading" data-heading="1" d="M1674,832c-0.5,1.9-1.2,3.8-1.3,5.7c-3.8,61.2-24.8,115.5-64.5,162.3c-47.1,55.5-107.3,86.9-179.2,96.2c-4.9,0.6-9.9,1.1-14.9,1.1c-1.2,0-3.4-2.1-3.5-3.4c-0.8-10.3-1.2-20.6-1.7-31.1c7.9-0.9,15.5-1.4,23-2.6c46.9-7.3,88.6-25.9,124.2-57.5c47-41.6,73.2-94.1,80.7-156.1c0.9-7.4,1.2-15,1.2-22.4c0.1-93.3,0.5-186.6-0.1-280c-0.3-58.2-19.5-110.1-57.4-154.5c-42-49.2-95.7-76.3-159.7-83.8c-6.1-0.7-12.3-1.1-18.4-1.1c-93-0.1-186,0-279,0c-1.5,0-3,0.1-4.5,0.1c0-12,0-24,0-36c95.3,0,190.7,0,286,0c2.1,0.4,4.1,1.2,6.2,1.3c18.8,0.3,37.1,3.7,55.2,8.4c59.9,15.5,109.1,47.7,147.6,96.2c36.1,45.5,55.2,97.5,58.7,155.4c0.1,1.9,0.9,3.8,1.3,5.7C1674,634.7,1674,733.3,1674,832z" />

		<text class="school-culture-heading-text" x="1650" y="526" transform="rotate(90 1650, 526)">Family Support And Expectation</text>

		<rect id="caring-family" x="1119.5" y="314.5" width="161" height="178" />

		<text class="caring-family-text" x="1170" y="400">Caring</text>
		<text class="caring-family-text" x="1170" y="426">Family</text>

		<image id="caring-family-icon" x="1124" y="308" width="52" height="52" xlink:href="" />

		<path id="family-support" d="M1286.3,314.5H1403c0,0,58.3,4.3,78.3,17.7L1408,493c0,0-2.7-2.2-12.2-1.8l-109.5-0.3V314.5z" />

		<text class="family-support-text" x="1330" y="400">Family</text>
		<text class="family-support-text" x="1326" y="426">Support</text>

		<image id="family-support-icon" x="1291" y="308" width="52" height="52" xlink:href="" />

		<path id="family-communications" d="M1493,337c0,0,130.3,50,131,207.7h-182.3c0,0,3.3-33.7-25.7-47.7L1493,337z" />

		<text class="family-communications-text" x="1484" y="464">Family</text>
		<text class="family-communications-text" x="1444" y="490">Communications</text>

		<image id="family-communications-icon" x="1456" y="380" width="52" height="52" xlink:href="" />

		<path id="adult-family-role-models" d="M1441,704c0-50.7,0-101.3,0-152c60.7,0,123.3,0,184,0c0,48.3,0,96.6-0.1,144.9c0,7.1,0,7.1-7.1,7.1C1559.6,704,1499.3,704,1441,704z" />

		<text class="adult-family-role-models-text" x="1476" y="624">Adult Family</text>
		<text class="adult-family-role-models-text" x="1476" y="650">Role Models</text>

		<image id="adult-family-role-models-icon" x="1456" y="548" width="52" height="52" xlink:href="" />

		<path id="family-school-involvement" d="M1441.5,711.3h183v107.1c0,0,1,36.6-11.7,76.2L1441.5,837V711.3z" />

		<text class="family-school-involvement-text" x="1470" y="780">Family School</text>
		<text class="family-school-involvement-text" x="1476" y="806">Involvement</text>

		<image id="family-school-involvement-icon" x="1456" y="708" width="52" height="52" xlink:href="" />

		<path id="high-expectations" d="M1441.7,843.7l167.7,62c0,0-47.3,136.7-201,144.8l-6.3-176.8C1402,873.7,1434.3,872.5,1441.7,843.7z" />

		<text class="high-expectations-text" x="1460" y="930">High</text>
		<text class="high-expectations-text" x="1430" y="956">Expectations</text>

		<image id="high-expectations-icon" x="1398" y="865" width="52" height="52" xlink:href="" />

	</g>

	<g class="peer-relationships">

		<path id="peer-relationships-heading" data-heading="1" d="M1064,1099c0-12.7,0-25.3,0-38c111.7,0,223.3,0,335,0c0,12.7,0,25.3,0,38C1287.3,1099,1175.7,1099,1064,1099z" />

		<text class="peer-relationships-heading-text" x="1148" y="1088">Peer Relationships</text>

		<rect id="positive-peer-influence" x="1064" y="873.5" width="161" height="178" />

		<text class="positive-peer-influence-text" x="1086" y="956">Positive Peer</text>
		<text class="positive-peer-influence-text" x="1096" y="982">Influence</text>

		<image id="positive-peer-influence-icon" x="1068" y="870" width="52" height="52" xlink:href="" />

		<polygon id="positive-peer-relationships" points="1397.5,1051.5 1232.5,1051.5 1232.5,873.5 1393.5,873.5" />

		<text class="positive-peer-relationships-text" x="1252" y="956">Positive Peer</text>
		<text class="positive-peer-relationships-text" x="1252" y="982">Relationships</text>

		<image id="positive-peer-relationships-icon" x="1234" y="870" width="52" height="52" xlink:href="" />

	</g>

	<g class="commitment-to-learning">

		<path id="commitment-to-learning-heading" data-heading="1" d="M1057,1099c-166.6,0-333.2,0-499.9,0c0-12.6,0-25.2,0-37.9c166.6,0,333.2,0,499.9,0C1057,1073.7,1057,1086.4,1057,1099z" />

		<text class="commitment-to-learning-heading-text" x="696" y="1088">Commitment To Learning</text>

		<rect id="school-work" x="557" y="873.5" width="161" height="178" />

		<text class="school-work-text" x="604" y="956">School</text>
		<text class="school-work-text" x="612" y="982">Work</text>

		<image id="school-work-icon" x="562" y="870" width="52" height="52" xlink:href="" />

		<rect id="school-engagement" x="725.8" y="873.5" width="161" height="178" />

		<text class="school-engagement-text" x="774" y="956">School</text>
		<text class="school-engagement-text" x="750" y="982">Engagement</text>

		<image id="school-engagement-icon" x="728" y="870" width="52" height="52" xlink:href="" />

		<rect id="achievement" x="895" y="873.5" width="161" height="178" />

		<text class="achievement-text" x="916" y="970">Achievement</text>

		<image id="achievement-icon" x="900" y="870" width="52" height="52" xlink:href="" />

	</g>

	<g class="community-cohesiveness">

		<path id="community-cohesiveness-heading" data-heading="1" d="M251,534c0.7-6.3,1.4-12.5,2.2-18.8c9.2-76.9,44.5-139.2,104.9-187.5c1-0.8,2.2-1.5,3.7-2.5c7.1,9.4,14.2,18.7,21.5,28.3c-1.2,1.1-2.2,2.2-3.3,3.1c-48.2,38.4-78.2,87.9-88.8,148.7c-2.1,12.2-3.2,24.8-3.3,37.2c-0.3,94.3-0.2,188.6-0.1,282.9c0.1,109.3,79.4,207.4,186.2,231c23.1,5.1,46.4,6.5,69.9,5.9c4.4-0.1,6.1,0.9,6,5.8c-0.3,10.3,0.1,20.6,0.2,30.9c-11.7,0-23.3,0-35,0c-1.8-0.4-3.5-0.9-5.3-1.1c-13-1.7-26.2-2.7-39-5.3c-115.5-23-205.2-122.1-217.6-239.9c-0.7-6.3-1.4-12.5-2.1-18.8C251,734,251,634,251,534z" />

		<text class="community-cohesiveness-heading-text" x="274" y="800" transform="rotate(-90 274, 800)">Community Cohesiveness</text>

		<path id="community-boundaries" d="M495.3,502.8c-0.4-0.9-0.5-1.2-0.7-1.5c-34.8-44.1-69.5-88.1-104.2-132.2c-2.7-3.4-4.7-2.9-7.7-0.4c-33.4,27.2-57,61.2-71.4,101.7c-11.3,31.7-12.9,64.4-12.2,97.6c0.1,3.9,2.3,4.1,5.3,4.1c55.8,0,111.6,0,167.4,0c4.3,0,5.5-1.8,5.4-5.7c-0.2-7.7-0.1-15.3,0-23c0.1-11.6,2.7-22.5,10.1-31.8C489.7,508.6,492.6,505.8,495.3,502.8z" />

		<text class="community-boundaries-text" x="340" y="488">Community</text>
		<text class="community-boundaries-text" x="340" y="514">Boundaries</text>

		<image id="community-boundaries-icon" x="330" y="402" width="52" height="52" xlink:href="" />

		<path id="adult-relationships" d="M297,732c0-50.7,0-101.3,0-152c60.7,0,121.3,0,182,0c0,48.3,0,96.6-0.1,144.9c0,7.1,0,7.1-7.1,7.1C413.6,732,355.3,732,297,732z" />

		<text class="adult-relationships-text" x="360" y="654">Adult</text>
		<text class="adult-relationships-text" x="330" y="680">Relationships</text>

		<image id="adult-relationships-icon" x="302" y="576" width="52" height="52" xlink:href="" />

		<path id="community-values-youth" d="M388.1,741.2c27.3,0,54.7,0,82,0c7,0,7,0,7,6.8c0,24.3-0.2,48.7,0.1,73c0.1,7.1,1.2,14.2,2.8,21.2c0.8,3.8-0.5,5.1-3.2,6.6c-22.2,13.1-44.4,26.4-66.7,39.5c-25.4,14.9-51,29.6-76.4,44.6c-3.8,2.3-5.6,1.9-7.7-2c-13.1-24.9-23.3-50.9-24.8-79.1c-1.9-35.4-1.5-70.9-2.2-106.3c-0.1-4.3,2.5-4.3,5.5-4.3C332.5,741.2,360.3,741.2,388.1,741.2z" />

		<text class="community-values-youth-text" x="334" y="806">Community</text>
		<text class="community-values-youth-text" x="330" y="832">Values Youth</text>

		<image id="community-values-youth-icon" x="302" y="736" width="52" height="52" xlink:href="" />

		<path id="caring-community" d="M549,874c0,59,0,118,0,177c-6.7-0.1-13.3,0.1-20-0.3c-12.9-0.8-26-1-38.7-3.1c-52.1-8.2-96.5-31.6-132.7-69.9c-8.6-9.1-16.1-19.3-24.6-29.7c51.5-32.3,101.9-64,152.4-95.7c1.6,1.8,2.7,3.2,3.9,4.6c7.9,8.9,17.5,15.2,29.4,16.4C528.7,874.2,538.9,873.8,549,874z" />

		<text class="caring-community-text" x="434" y="950">Caring</text>
		<text class="caring-community-text" x="410" y="976">Community</text>

		<image id="caring-community-icon" x="352" y="918" width="52" height="52" xlink:href="" />

	</g>

	<g class="cultural-sensitivity">

		<path id="cultural-sensitivity-heading" data-heading="1" d="M492,574c0-12.3,0-24.6,0-37c76.7,0,153.3,0,230,0c0,12.1,0,24.2,0,36.8c-2.9,0-5.1,0-7.2,0c-72.1,0-144.2,0-216.3,0C496.3,573.8,494.2,573.9,492,574z" />

		<text class="cultural-sensitivity-heading-text" x="522" y="563">Cultural Sensitivity</text>

		<rect id="cultural-awareness" x="491" y="578" width="230" height="91" />

		<text class="cultural-awareness-text" x="574" y="616">Cultural</text>
		<text class="cultural-awareness-text" x="560" y="644">Awareness</text>

		<image id="cultural-awareness-icon" x="496" y="574" width="52" height="52" xlink:href="" />

		<rect id="acceptance" x="491" y="674.5" width="230" height="91" />

		<text class="acceptance-text" x="556" y="726">Acceptance</text>

		<image id="acceptance-icon" x="496" y="672" width="52" height="52" xlink:href="" />

		<path id="spirituality" d="M491,831c0-20,0-39.9,0-60c77,0,154,0,231,0c0,29.9,0,59.9,0,90.2c-2.5,0.1-4.3,0.3-6.1,0.3c-9.7,0-19.3,0-29,0c-52.3,0-104.6,0-157,0c-13.4,0-24.6-4.5-32.3-15.7C494.7,841.5,493.2,836,491,831z" />

		<text class="spirituality-text" x="564" y="822">Spirituality</text>

		<image id="spirituality-icon" x="496" y="768" width="52" height="52" xlink:href="" />

	</g>

	<g class="self-concept">

		<path id="self-concept-heading" data-heading="1" d="M729.2,574.5c0-12.5,0-24.9,0-37.5c75.6,0,151.2,0,226.8,0c0,12.3,0,24.5,0,37.3c-2.9,0-5,0-7.1,0c-71.1,0-142.2,0-213.3,0C733.4,574.3,731.3,574.4,729.2,574.5z" />

		<text class="self-concept-heading-text" x="784" y="563">Self Concept</text>

		<rect id="planning-and-decision-making" x="729.2" y="578" width="226" height="91" />

		<text class="planning-and-decision-making-text" x="792" y="616">Planning &amp;</text>
		<text class="planning-and-decision-making-text" x="768" y="644">Decision Making</text>

		<image id="planning-and-decision-making-icon" x="734" y="574" width="52" height="52" xlink:href="" />

		<rect id="self-efficacy" x="729.2" y="674.5" width="226" height="91" />

		<text class="self-efficacy-text" x="790" y="726">Self Efficacy</text>

		<image id="self-efficacy-icon" x="734" y="672" width="52" height="52" xlink:href="" />

		<rect id="self-esteem" x="729.8" y="771" width="226" height="91" />

		<text class="self-esteem-text" x="792" y="822">Self Esteem</text>

		<image id="self-esteem-icon" x="734" y="768" width="52" height="52" xlink:href="" />

	</g>

	<g class="social-sensitivity">

		<path id="social-sensitivity-heading" data-heading="1" d="M966,574.2c0-12.4,0-24.7,0-37.2c75,0,150,0,225,0c0,12.2,0,24.3,0,37c-2.9,0-5,0-7,0c-70.5,0-141.1,0-211.6,0C970.2,573.9,968.1,574.1,966,574.2z" />

		<text class="social-sensitivity-heading-text" x="1004" y="563">Social Sensitivity</text>

		<rect id="equity-and-social-justice" x="964.8" y="578" width="226" height="91" />

		<text class="equity-and-social-justice-text" x="1036" y="616">Equity &amp;</text>
		<text class="equity-and-social-justice-text" x="1016" y="644">Social Justice</text>

		<image id="equity-and-social-justice-icon" x="970" y="574" width="52" height="52" xlink:href="" />

		<rect id="caring" x="964.8" y="674.5" width="226" height="91" />

		<text class="caring-text" x="1046" y="726">Caring</text>

		<image id="caring-icon" x="970" y="672" width="52" height="52" xlink:href="" />

		<rect id="empathy" x="965.2" y="771" width="226" height="91" />

		<text class="empathy-text" x="1038" y="822">Empathy</text>

		<image id="empathy-icon" x="970" y="768" width="52" height="52" xlink:href="" />

	</g>

	<g class="empowerment">

		<path id="empowerment-heading" data-heading="1" d="M1200.3,574c0-12.3,0-24.6,0-37c76.7,0,153.3,0,230,0c0,12.1,0,24.2,0,36.8c-2.9,0-5.1,0-7.2,0c-72.1,0-144.2,0-216.3,0C1204.6,573.8,1202.4,573.9,1200.3,574z" />

		<text class="empowerment-heading-text" x="1250" y="563">Empowerment</text>

		<path id="safety" d="M1200,643c0-21,0-41.9,0-63c77,0,154,0,231,0c-0.1,2-0.4,4-0.4,6c0,16.5,0,33,0,49.5c0,7.3,0,7.3-7.3,7.3c-71.8,0-143.5,0-215.3,0C1205.3,642.8,1202.7,642.9,1200,643z" />

		<text class="safety-text" x="1286" y="618">Safety</text>

		<image id="safety-icon" x="1204" y="574" width="52" height="52" xlink:href="" />

	</g>

	<g class="self-control">

		<path id="self-control-heading" data-heading="1" d="M1430.3,686.8c0,0.3,0,0.7,0,1c-76.9,0-153.8,0-230.8,0c0-12,0-24,0-36c76.3,0,152.5,0,228.8,0c0.7,0,1.3,0.6,2,1C1430.3,664.1,1430.3,675.5,1430.3,686.8z" />

		<text class="self-control-heading-text" x="1260" y="678">Self Control</text>

		<path id="restraint" d="M1200,764c0-22.3,0-44.6,0-67c77,0,154,0,231,0c-0.1,19.5-0.1,39-0.2,58.4c-0.1,9.3,1.6,8.7-8.9,8.7c-51.1,0-102.3,0-153.4,0C1245.6,764.1,1222.8,764,1200,764z" />

		<text class="restraint-text" x="1274" y="736">Restraint</text>

		<image id="restraint-icon" x="1204" y="692" width="52" height="52" xlink:href="" />

		<path id="resistance-skills" d="M1200,862c0-30,0-59.9,0-90c77,0,154,0,231,0c-0.1,17.8-0.1,35.6-0.3,53.4c0,3.8-0.5,7.7-1.6,11.3c-4.6,15.8-18.2,25.4-35.9,25.4c-44.4,0.1-88.9,0.1-133.3,0C1239.9,862.2,1220,862.1,1200,862z" />

		<text class="resistance-skills-text" x="1267" y="809">Resistance</text>
		<text class="resistance-skills-text" x="1292" y="835">Skills</text>

		<image id="resistance-skills-icon" x="1204" y="768" width="52" height="52" xlink:href="" />

	</g>

</svg>